<mxfile host="app.diagrams.net" modified="2023-11-14T07:42:55.849Z" agent="Mozilla/5.0 (X11; Ubuntu; Linux x86_64; rv:109.0) Gecko/20100101 Firefox/119.0" etag="LGilVTkSHo4Ai1AsU2Dq" version="22.1.0" type="google">
  <diagram name="Page-1" id="3cADfMsnqZbXfQ4Lu1hJ">
    <mxGraphModel grid="1" page="1" gridSize="10" guides="1" tooltips="1" connect="1" arrows="1" fold="1" pageScale="1" pageWidth="850" pageHeight="1100" math="0" shadow="0">
      <root>
        <mxCell id="0" />
        <mxCell id="1" parent="0" />
        <mxCell id="LA7bCeN64nrSmy3I2I8F-1" value="" style="rounded=0;whiteSpace=wrap;html=1;align=left;fontSize=19;" vertex="1" parent="1">
          <mxGeometry x="340" y="36" width="510" height="50" as="geometry" />
        </mxCell>
        <mxCell id="LA7bCeN64nrSmy3I2I8F-2" value="" style="rounded=0;whiteSpace=wrap;html=1;align=left;" vertex="1" parent="1">
          <mxGeometry x="880" y="35" width="560" height="50" as="geometry" />
        </mxCell>
        <mxCell id="LA7bCeN64nrSmy3I2I8F-3" value="State" style="text;html=1;strokeColor=none;fillColor=none;align=center;verticalAlign=middle;whiteSpace=wrap;rounded=0;" vertex="1" parent="1">
          <mxGeometry x="338" y="32" width="60" height="30" as="geometry" />
        </mxCell>
        <mxCell id="LA7bCeN64nrSmy3I2I8F-4" value="City" style="text;html=1;strokeColor=none;fillColor=none;align=center;verticalAlign=middle;whiteSpace=wrap;rounded=0;" vertex="1" parent="1">
          <mxGeometry x="875.25" y="31" width="60" height="30" as="geometry" />
        </mxCell>
        <mxCell id="LA7bCeN64nrSmy3I2I8F-5" value="Search" style="rounded=0;whiteSpace=wrap;html=1;fillColor=#60a917;fontColor=#ffffff;strokeColor=#2D7600;" vertex="1" parent="1">
          <mxGeometry x="780" y="120" width="145" height="40" as="geometry" />
        </mxCell>
        <mxCell id="LA7bCeN64nrSmy3I2I8F-6" value="&lt;font style=&quot;font-size: 20px;&quot;&gt;&lt;b&gt;Available Stations&lt;/b&gt;&lt;/font&gt;" style="text;html=1;strokeColor=none;fillColor=none;align=center;verticalAlign=middle;whiteSpace=wrap;rounded=0;" vertex="1" parent="1">
          <mxGeometry x="700" y="200" width="302.5" height="50" as="geometry" />
        </mxCell>
        <mxCell id="LA7bCeN64nrSmy3I2I8F-8" value="&lt;font size=&quot;1&quot;&gt;&lt;b style=&quot;font-size: 14px;&quot;&gt;Station Name&lt;/b&gt;&lt;/font&gt;" style="text;html=1;strokeColor=none;fillColor=none;align=center;verticalAlign=middle;whiteSpace=wrap;rounded=0;" vertex="1" parent="1">
          <mxGeometry x="485" y="280" width="110" height="30" as="geometry" />
        </mxCell>
        <mxCell id="LA7bCeN64nrSmy3I2I8F-9" value="&lt;font size=&quot;1&quot;&gt;&lt;b style=&quot;font-size: 14px;&quot;&gt;Owner Name&lt;/b&gt;&lt;/font&gt;" style="text;html=1;strokeColor=none;fillColor=none;align=center;verticalAlign=middle;whiteSpace=wrap;rounded=0;" vertex="1" parent="1">
          <mxGeometry x="320" y="280" width="120" height="30" as="geometry" />
        </mxCell>
        <mxCell id="LA7bCeN64nrSmy3I2I8F-10" value="&lt;font size=&quot;1&quot;&gt;&lt;b style=&quot;font-size: 14px;&quot;&gt;Address&lt;/b&gt;&lt;/font&gt;" style="text;html=1;strokeColor=none;fillColor=none;align=center;verticalAlign=middle;whiteSpace=wrap;rounded=0;" vertex="1" parent="1">
          <mxGeometry x="640" y="280" width="60" height="30" as="geometry" />
        </mxCell>
        <mxCell id="LA7bCeN64nrSmy3I2I8F-11" value="&lt;font size=&quot;1&quot;&gt;&lt;b style=&quot;font-size: 14px;&quot;&gt;State&lt;/b&gt;&lt;/font&gt;" style="text;html=1;strokeColor=none;fillColor=none;align=center;verticalAlign=middle;whiteSpace=wrap;rounded=0;" vertex="1" parent="1">
          <mxGeometry x="730" y="280" width="100" height="30" as="geometry" />
        </mxCell>
        <mxCell id="LA7bCeN64nrSmy3I2I8F-12" value="&lt;font size=&quot;1&quot;&gt;&lt;b style=&quot;font-size: 14px;&quot;&gt;City&lt;/b&gt;&lt;/font&gt;" style="text;html=1;strokeColor=none;fillColor=none;align=center;verticalAlign=middle;whiteSpace=wrap;rounded=0;" vertex="1" parent="1">
          <mxGeometry x="865" y="280" width="60" height="30" as="geometry" />
        </mxCell>
        <mxCell id="LA7bCeN64nrSmy3I2I8F-13" value="&lt;font size=&quot;1&quot;&gt;&lt;b style=&quot;font-size: 14px;&quot;&gt;Date&lt;/b&gt;&lt;/font&gt;" style="text;html=1;strokeColor=none;fillColor=none;align=center;verticalAlign=middle;whiteSpace=wrap;rounded=0;" vertex="1" parent="1">
          <mxGeometry x="970" y="280" width="60" height="30" as="geometry" />
        </mxCell>
        <mxCell id="LA7bCeN64nrSmy3I2I8F-14" value="&lt;font size=&quot;1&quot;&gt;&lt;b style=&quot;font-size: 14px;&quot;&gt;Time&lt;/b&gt;&lt;/font&gt;" style="text;html=1;strokeColor=none;fillColor=none;align=center;verticalAlign=middle;whiteSpace=wrap;rounded=0;" vertex="1" parent="1">
          <mxGeometry x="1070" y="280" width="60" height="30" as="geometry" />
        </mxCell>
        <mxCell id="LA7bCeN64nrSmy3I2I8F-15" value="&lt;font size=&quot;1&quot;&gt;&lt;b style=&quot;font-size: 14px;&quot;&gt;Cost Per Unit&lt;/b&gt;&lt;/font&gt;" style="text;html=1;strokeColor=none;fillColor=none;align=center;verticalAlign=middle;whiteSpace=wrap;rounded=0;" vertex="1" parent="1">
          <mxGeometry x="1200" y="280" width="100" height="30" as="geometry" />
        </mxCell>
        <mxCell id="LA7bCeN64nrSmy3I2I8F-16" value="&lt;font size=&quot;1&quot;&gt;&lt;b style=&quot;font-size: 14px;&quot;&gt;Action&lt;/b&gt;&lt;/font&gt;" style="text;html=1;strokeColor=none;fillColor=none;align=center;verticalAlign=middle;whiteSpace=wrap;rounded=0;" vertex="1" parent="1">
          <mxGeometry x="1350" y="280" width="80" height="30" as="geometry" />
        </mxCell>
        <mxCell id="LA7bCeN64nrSmy3I2I8F-18" value="" style="rounded=0;whiteSpace=wrap;html=1;fillColor=#60a917;fontColor=#ffffff;strokeColor=#2D7600;" vertex="1" parent="1">
          <mxGeometry x="100" y="30" width="230" height="720" as="geometry" />
        </mxCell>
        <mxCell id="LA7bCeN64nrSmy3I2I8F-20" value="&lt;font size=&quot;1&quot;&gt;&lt;b&gt;&amp;nbsp;&amp;nbsp; &lt;/b&gt;&lt;b style=&quot;font-size: 14px;&quot;&gt;Dashboard&lt;/b&gt;&lt;/font&gt;" style="rounded=0;whiteSpace=wrap;html=1;align=left;" vertex="1" parent="1">
          <mxGeometry x="110" y="50" width="200" height="40" as="geometry" />
        </mxCell>
        <mxCell id="LA7bCeN64nrSmy3I2I8F-21" value="&lt;b style=&quot;font-size: 14px;&quot;&gt;&amp;nbsp; Book Charge Station&lt;br&gt;&lt;/b&gt;" style="rounded=0;whiteSpace=wrap;html=1;align=left;fillColor=#d5e8d4;gradientColor=#97d077;strokeColor=#82b366;" vertex="1" parent="1">
          <mxGeometry x="110" y="100" width="200" height="40" as="geometry" />
        </mxCell>
        <mxCell id="LA7bCeN64nrSmy3I2I8F-22" value="&lt;b&gt;&lt;font style=&quot;font-size: 14px;&quot;&gt;&amp;nbsp;&amp;nbsp; History&lt;/font&gt;&lt;/b&gt;" style="rounded=0;whiteSpace=wrap;html=1;align=left;" vertex="1" parent="1">
          <mxGeometry x="110" y="150" width="200" height="40" as="geometry" />
        </mxCell>
        <mxCell id="LA7bCeN64nrSmy3I2I8F-23" value="Owner" style="text;html=1;strokeColor=none;fillColor=none;align=center;verticalAlign=middle;whiteSpace=wrap;rounded=0;" vertex="1" parent="1">
          <mxGeometry x="340" y="360" width="60" height="30" as="geometry" />
        </mxCell>
        <mxCell id="LA7bCeN64nrSmy3I2I8F-24" value="Owner two" style="text;html=1;strokeColor=none;fillColor=none;align=center;verticalAlign=middle;whiteSpace=wrap;rounded=0;" vertex="1" parent="1">
          <mxGeometry x="340" y="420" width="60" height="30" as="geometry" />
        </mxCell>
        <mxCell id="LA7bCeN64nrSmy3I2I8F-25" value="Owner" style="text;html=1;strokeColor=none;fillColor=none;align=center;verticalAlign=middle;whiteSpace=wrap;rounded=0;" vertex="1" parent="1">
          <mxGeometry x="340" y="470" width="60" height="30" as="geometry" />
        </mxCell>
        <mxCell id="LA7bCeN64nrSmy3I2I8F-26" value="Owner" style="text;html=1;strokeColor=none;fillColor=none;align=center;verticalAlign=middle;whiteSpace=wrap;rounded=0;" vertex="1" parent="1">
          <mxGeometry x="340" y="530" width="60" height="30" as="geometry" />
        </mxCell>
        <mxCell id="LA7bCeN64nrSmy3I2I8F-27" value="Owner" style="text;html=1;strokeColor=none;fillColor=none;align=center;verticalAlign=middle;whiteSpace=wrap;rounded=0;" vertex="1" parent="1">
          <mxGeometry x="340" y="580" width="60" height="30" as="geometry" />
        </mxCell>
        <mxCell id="LA7bCeN64nrSmy3I2I8F-28" value="Owner" style="text;html=1;strokeColor=none;fillColor=none;align=center;verticalAlign=middle;whiteSpace=wrap;rounded=0;" vertex="1" parent="1">
          <mxGeometry x="340" y="630" width="60" height="30" as="geometry" />
        </mxCell>
        <mxCell id="LA7bCeN64nrSmy3I2I8F-29" value="ABC" style="text;html=1;strokeColor=none;fillColor=none;align=center;verticalAlign=middle;whiteSpace=wrap;rounded=0;" vertex="1" parent="1">
          <mxGeometry x="500" y="360" width="60" height="30" as="geometry" />
        </mxCell>
        <mxCell id="LA7bCeN64nrSmy3I2I8F-30" value="XYZ" style="text;html=1;strokeColor=none;fillColor=none;align=center;verticalAlign=middle;whiteSpace=wrap;rounded=0;" vertex="1" parent="1">
          <mxGeometry x="500" y="420" width="60" height="30" as="geometry" />
        </mxCell>
        <mxCell id="LA7bCeN64nrSmy3I2I8F-31" value="PQR" style="text;html=1;strokeColor=none;fillColor=none;align=center;verticalAlign=middle;whiteSpace=wrap;rounded=0;" vertex="1" parent="1">
          <mxGeometry x="500" y="470" width="60" height="30" as="geometry" />
        </mxCell>
        <mxCell id="LA7bCeN64nrSmy3I2I8F-32" value="SSS" style="text;html=1;strokeColor=none;fillColor=none;align=center;verticalAlign=middle;whiteSpace=wrap;rounded=0;" vertex="1" parent="1">
          <mxGeometry x="500" y="530" width="60" height="30" as="geometry" />
        </mxCell>
        <mxCell id="LA7bCeN64nrSmy3I2I8F-33" value="RRR" style="text;html=1;strokeColor=none;fillColor=none;align=center;verticalAlign=middle;whiteSpace=wrap;rounded=0;" vertex="1" parent="1">
          <mxGeometry x="500" y="580" width="60" height="30" as="geometry" />
        </mxCell>
        <mxCell id="LA7bCeN64nrSmy3I2I8F-34" value="AAA" style="text;html=1;strokeColor=none;fillColor=none;align=center;verticalAlign=middle;whiteSpace=wrap;rounded=0;" vertex="1" parent="1">
          <mxGeometry x="500" y="630" width="60" height="30" as="geometry" />
        </mxCell>
        <mxCell id="LA7bCeN64nrSmy3I2I8F-35" value="Hadapsar" style="text;html=1;strokeColor=none;fillColor=none;align=center;verticalAlign=middle;whiteSpace=wrap;rounded=0;" vertex="1" parent="1">
          <mxGeometry x="640" y="360" width="60" height="30" as="geometry" />
        </mxCell>
        <mxCell id="LA7bCeN64nrSmy3I2I8F-36" value="Addr1" style="text;html=1;strokeColor=none;fillColor=none;align=center;verticalAlign=middle;whiteSpace=wrap;rounded=0;" vertex="1" parent="1">
          <mxGeometry x="640" y="420" width="60" height="30" as="geometry" />
        </mxCell>
        <mxCell id="LA7bCeN64nrSmy3I2I8F-37" value="Addr3" style="text;html=1;strokeColor=none;fillColor=none;align=center;verticalAlign=middle;whiteSpace=wrap;rounded=0;" vertex="1" parent="1">
          <mxGeometry x="640" y="530" width="60" height="30" as="geometry" />
        </mxCell>
        <mxCell id="LA7bCeN64nrSmy3I2I8F-38" value="Addr2" style="text;html=1;strokeColor=none;fillColor=none;align=center;verticalAlign=middle;whiteSpace=wrap;rounded=0;" vertex="1" parent="1">
          <mxGeometry x="640" y="470" width="60" height="30" as="geometry" />
        </mxCell>
        <mxCell id="LA7bCeN64nrSmy3I2I8F-40" value="Addr4" style="text;html=1;strokeColor=none;fillColor=none;align=center;verticalAlign=middle;whiteSpace=wrap;rounded=0;" vertex="1" parent="1">
          <mxGeometry x="640" y="580" width="60" height="30" as="geometry" />
        </mxCell>
        <mxCell id="LA7bCeN64nrSmy3I2I8F-41" value="Addr5" style="text;html=1;strokeColor=none;fillColor=none;align=center;verticalAlign=middle;whiteSpace=wrap;rounded=0;" vertex="1" parent="1">
          <mxGeometry x="640" y="630" width="60" height="30" as="geometry" />
        </mxCell>
        <mxCell id="LA7bCeN64nrSmy3I2I8F-42" value="Maharashtra" style="text;html=1;strokeColor=none;fillColor=none;align=center;verticalAlign=middle;whiteSpace=wrap;rounded=0;" vertex="1" parent="1">
          <mxGeometry x="750" y="360" width="80" height="30" as="geometry" />
        </mxCell>
        <mxCell id="LA7bCeN64nrSmy3I2I8F-44" value="Maharashtra" style="text;html=1;strokeColor=none;fillColor=none;align=center;verticalAlign=middle;whiteSpace=wrap;rounded=0;" vertex="1" parent="1">
          <mxGeometry x="750" y="420" width="80" height="30" as="geometry" />
        </mxCell>
        <mxCell id="LA7bCeN64nrSmy3I2I8F-45" value="Maharashtra" style="text;html=1;strokeColor=none;fillColor=none;align=center;verticalAlign=middle;whiteSpace=wrap;rounded=0;" vertex="1" parent="1">
          <mxGeometry x="750" y="470" width="80" height="30" as="geometry" />
        </mxCell>
        <mxCell id="LA7bCeN64nrSmy3I2I8F-46" value="Maharashtra" style="text;html=1;strokeColor=none;fillColor=none;align=center;verticalAlign=middle;whiteSpace=wrap;rounded=0;" vertex="1" parent="1">
          <mxGeometry x="750" y="530" width="80" height="30" as="geometry" />
        </mxCell>
        <mxCell id="LA7bCeN64nrSmy3I2I8F-47" value="Maharashtra" style="text;html=1;strokeColor=none;fillColor=none;align=center;verticalAlign=middle;whiteSpace=wrap;rounded=0;" vertex="1" parent="1">
          <mxGeometry x="750" y="580" width="80" height="30" as="geometry" />
        </mxCell>
        <mxCell id="LA7bCeN64nrSmy3I2I8F-48" value="Maharashtra" style="text;html=1;strokeColor=none;fillColor=none;align=center;verticalAlign=middle;whiteSpace=wrap;rounded=0;" vertex="1" parent="1">
          <mxGeometry x="750" y="630" width="80" height="30" as="geometry" />
        </mxCell>
        <mxCell id="LA7bCeN64nrSmy3I2I8F-49" value="Pune" style="text;html=1;strokeColor=none;fillColor=none;align=center;verticalAlign=middle;whiteSpace=wrap;rounded=0;" vertex="1" parent="1">
          <mxGeometry x="865" y="360" width="60" height="30" as="geometry" />
        </mxCell>
        <mxCell id="LA7bCeN64nrSmy3I2I8F-51" value="Pune" style="text;html=1;strokeColor=none;fillColor=none;align=center;verticalAlign=middle;whiteSpace=wrap;rounded=0;" vertex="1" parent="1">
          <mxGeometry x="865" y="420" width="60" height="30" as="geometry" />
        </mxCell>
        <mxCell id="LA7bCeN64nrSmy3I2I8F-52" value="Pune" style="text;html=1;strokeColor=none;fillColor=none;align=center;verticalAlign=middle;whiteSpace=wrap;rounded=0;" vertex="1" parent="1">
          <mxGeometry x="865" y="470" width="60" height="30" as="geometry" />
        </mxCell>
        <mxCell id="LA7bCeN64nrSmy3I2I8F-53" value="Pune" style="text;html=1;strokeColor=none;fillColor=none;align=center;verticalAlign=middle;whiteSpace=wrap;rounded=0;" vertex="1" parent="1">
          <mxGeometry x="865" y="530" width="60" height="30" as="geometry" />
        </mxCell>
        <mxCell id="LA7bCeN64nrSmy3I2I8F-54" value="Pune" style="text;html=1;strokeColor=none;fillColor=none;align=center;verticalAlign=middle;whiteSpace=wrap;rounded=0;" vertex="1" parent="1">
          <mxGeometry x="865" y="580" width="60" height="30" as="geometry" />
        </mxCell>
        <mxCell id="LA7bCeN64nrSmy3I2I8F-55" value="Pune" style="text;html=1;strokeColor=none;fillColor=none;align=center;verticalAlign=middle;whiteSpace=wrap;rounded=0;" vertex="1" parent="1">
          <mxGeometry x="865" y="630" width="60" height="30" as="geometry" />
        </mxCell>
        <mxCell id="LA7bCeN64nrSmy3I2I8F-56" value="12/10/2023" style="text;html=1;strokeColor=none;fillColor=none;align=center;verticalAlign=middle;whiteSpace=wrap;rounded=0;" vertex="1" parent="1">
          <mxGeometry x="970" y="360" width="80" height="30" as="geometry" />
        </mxCell>
        <mxCell id="LA7bCeN64nrSmy3I2I8F-57" value="13/10/2023" style="text;html=1;strokeColor=none;fillColor=none;align=center;verticalAlign=middle;whiteSpace=wrap;rounded=0;" vertex="1" parent="1">
          <mxGeometry x="970" y="420" width="80" height="30" as="geometry" />
        </mxCell>
        <mxCell id="LA7bCeN64nrSmy3I2I8F-58" value="15/10/2023" style="text;html=1;strokeColor=none;fillColor=none;align=center;verticalAlign=middle;whiteSpace=wrap;rounded=0;" vertex="1" parent="1">
          <mxGeometry x="970" y="470" width="80" height="30" as="geometry" />
        </mxCell>
        <mxCell id="LA7bCeN64nrSmy3I2I8F-59" value="19/10/2023" style="text;html=1;strokeColor=none;fillColor=none;align=center;verticalAlign=middle;whiteSpace=wrap;rounded=0;" vertex="1" parent="1">
          <mxGeometry x="970" y="530" width="80" height="30" as="geometry" />
        </mxCell>
        <mxCell id="LA7bCeN64nrSmy3I2I8F-60" value="21/10/2023" style="text;html=1;strokeColor=none;fillColor=none;align=center;verticalAlign=middle;whiteSpace=wrap;rounded=0;" vertex="1" parent="1">
          <mxGeometry x="970" y="580" width="80" height="30" as="geometry" />
        </mxCell>
        <mxCell id="LA7bCeN64nrSmy3I2I8F-61" value="23/10/2023" style="text;html=1;strokeColor=none;fillColor=none;align=center;verticalAlign=middle;whiteSpace=wrap;rounded=0;" vertex="1" parent="1">
          <mxGeometry x="970" y="630" width="80" height="30" as="geometry" />
        </mxCell>
        <mxCell id="LA7bCeN64nrSmy3I2I8F-62" value="12:10 PM" style="text;html=1;strokeColor=none;fillColor=none;align=center;verticalAlign=middle;whiteSpace=wrap;rounded=0;" vertex="1" parent="1">
          <mxGeometry x="1070" y="360" width="60" height="30" as="geometry" />
        </mxCell>
        <mxCell id="LA7bCeN64nrSmy3I2I8F-64" value="12:19 PM" style="text;html=1;strokeColor=none;fillColor=none;align=center;verticalAlign=middle;whiteSpace=wrap;rounded=0;" vertex="1" parent="1">
          <mxGeometry x="1070" y="420" width="60" height="30" as="geometry" />
        </mxCell>
        <mxCell id="LA7bCeN64nrSmy3I2I8F-65" value="1:10 PM" style="text;html=1;strokeColor=none;fillColor=none;align=center;verticalAlign=middle;whiteSpace=wrap;rounded=0;" vertex="1" parent="1">
          <mxGeometry x="1070" y="470" width="60" height="30" as="geometry" />
        </mxCell>
        <mxCell id="LA7bCeN64nrSmy3I2I8F-66" value="11:10 AM" style="text;html=1;strokeColor=none;fillColor=none;align=center;verticalAlign=middle;whiteSpace=wrap;rounded=0;" vertex="1" parent="1">
          <mxGeometry x="1070" y="530" width="60" height="30" as="geometry" />
        </mxCell>
        <mxCell id="LA7bCeN64nrSmy3I2I8F-67" value="1:30 PM" style="text;html=1;strokeColor=none;fillColor=none;align=center;verticalAlign=middle;whiteSpace=wrap;rounded=0;" vertex="1" parent="1">
          <mxGeometry x="1070" y="580" width="60" height="30" as="geometry" />
        </mxCell>
        <mxCell id="LA7bCeN64nrSmy3I2I8F-68" value="12:40 PM" style="text;html=1;strokeColor=none;fillColor=none;align=center;verticalAlign=middle;whiteSpace=wrap;rounded=0;" vertex="1" parent="1">
          <mxGeometry x="1070" y="630" width="60" height="30" as="geometry" />
        </mxCell>
        <mxCell id="LA7bCeN64nrSmy3I2I8F-69" value="10" style="text;html=1;strokeColor=none;fillColor=none;align=center;verticalAlign=middle;whiteSpace=wrap;rounded=0;" vertex="1" parent="1">
          <mxGeometry x="1215" y="360" width="60" height="30" as="geometry" />
        </mxCell>
        <mxCell id="LA7bCeN64nrSmy3I2I8F-70" value="15" style="text;html=1;strokeColor=none;fillColor=none;align=center;verticalAlign=middle;whiteSpace=wrap;rounded=0;" vertex="1" parent="1">
          <mxGeometry x="1215" y="410" width="60" height="30" as="geometry" />
        </mxCell>
        <mxCell id="LA7bCeN64nrSmy3I2I8F-71" value="13" style="text;html=1;strokeColor=none;fillColor=none;align=center;verticalAlign=middle;whiteSpace=wrap;rounded=0;" vertex="1" parent="1">
          <mxGeometry x="1215" y="470" width="60" height="30" as="geometry" />
        </mxCell>
        <mxCell id="LA7bCeN64nrSmy3I2I8F-72" value="12" style="text;html=1;strokeColor=none;fillColor=none;align=center;verticalAlign=middle;whiteSpace=wrap;rounded=0;" vertex="1" parent="1">
          <mxGeometry x="1215" y="530" width="60" height="30" as="geometry" />
        </mxCell>
        <mxCell id="LA7bCeN64nrSmy3I2I8F-73" value="16" style="text;html=1;strokeColor=none;fillColor=none;align=center;verticalAlign=middle;whiteSpace=wrap;rounded=0;" vertex="1" parent="1">
          <mxGeometry x="1215" y="580" width="60" height="30" as="geometry" />
        </mxCell>
        <mxCell id="LA7bCeN64nrSmy3I2I8F-74" value="20" style="text;html=1;strokeColor=none;fillColor=none;align=center;verticalAlign=middle;whiteSpace=wrap;rounded=0;" vertex="1" parent="1">
          <mxGeometry x="1215" y="630" width="60" height="30" as="geometry" />
        </mxCell>
        <mxCell id="LA7bCeN64nrSmy3I2I8F-76" value="BOOK NOW" style="rounded=1;whiteSpace=wrap;html=1;" vertex="1" parent="1">
          <mxGeometry x="1340" y="360" width="120" height="30" as="geometry" />
        </mxCell>
        <mxCell id="LA7bCeN64nrSmy3I2I8F-77" value="BOOK NOW" style="rounded=1;whiteSpace=wrap;html=1;" vertex="1" parent="1">
          <mxGeometry x="1340" y="410" width="120" height="30" as="geometry" />
        </mxCell>
        <mxCell id="LA7bCeN64nrSmy3I2I8F-78" value="BOOK NOW" style="rounded=1;whiteSpace=wrap;html=1;" vertex="1" parent="1">
          <mxGeometry x="1340" y="470" width="120" height="30" as="geometry" />
        </mxCell>
        <mxCell id="LA7bCeN64nrSmy3I2I8F-79" value="BOOK NOW" style="rounded=1;whiteSpace=wrap;html=1;" vertex="1" parent="1">
          <mxGeometry x="1340" y="530" width="120" height="30" as="geometry" />
        </mxCell>
        <mxCell id="LA7bCeN64nrSmy3I2I8F-80" value="BOOK NOW" style="rounded=1;whiteSpace=wrap;html=1;" vertex="1" parent="1">
          <mxGeometry x="1340" y="580" width="120" height="30" as="geometry" />
        </mxCell>
        <mxCell id="LA7bCeN64nrSmy3I2I8F-81" value="BOOK NOW" style="rounded=1;whiteSpace=wrap;html=1;" vertex="1" parent="1">
          <mxGeometry x="1340" y="630" width="120" height="30" as="geometry" />
        </mxCell>
        <mxCell id="LA7bCeN64nrSmy3I2I8F-82" value="Pune" style="text;html=1;strokeColor=none;fillColor=none;align=center;verticalAlign=middle;whiteSpace=wrap;rounded=0;fontSize=19;" vertex="1" parent="1">
          <mxGeometry x="884" y="58" width="60" height="30" as="geometry" />
        </mxCell>
        <mxCell id="LA7bCeN64nrSmy3I2I8F-83" value="Maharashtra" style="text;html=1;strokeColor=none;fillColor=none;align=center;verticalAlign=middle;whiteSpace=wrap;rounded=0;fontSize=19;" vertex="1" parent="1">
          <mxGeometry x="377" y="58" width="60" height="30" as="geometry" />
        </mxCell>
      </root>
    </mxGraphModel>
  </diagram>
</mxfile>
